<svg width="420" height="59" fill="none" xmlns="http://www.w3.org/2000/svg"><g clip-path="url(#a)"><path d="M28.33 16.42a16.57 16.57 0 0 1 5.73 10.08H22.54a6.44 6.44 0 0 0-2.27-3.86 6.93 6.93 0 0 0-4.43-1.4 4.85 4.85 0 0 0-3.17.9 3.14 3.14 0 0 0-1.08 2.56 3 3 0 0 0 2 2.8c2.006.84 4.094 1.47 6.23 1.88a62.91 62.91 0 0 1 7.56 2.19 12.52 12.52 0 0 1 5.11 3.64A10 10 0 0 1 34.63 42a10.38 10.38 0 0 1-1.87 6.12 12.4 12.4 0 0 1-5.4 4.17A21.07 21.07 0 0 1 19 53.78c-5.433 0-9.767-1.2-13-3.6a15.17 15.17 0 0 1-6-10.29h11.88a5.31 5.31 0 0 0 2.2 4A8.26 8.26 0 0 0 19 45.22a4.59 4.59 0 0 0 3.17-1 3.259 3.259 0 0 0 1.08-2.55 3.08 3.08 0 0 0-2-3 36.19 36.19 0 0 0-6.45-1.91 51.22 51.22 0 0 1-7.34-2 12.12 12.12 0 0 1-5-3.5A9.71 9.71 0 0 1 .43 24.7 10.75 10.75 0 0 1 4.54 16c2.727-2.227 6.59-3.343 11.59-3.35 5-.007 9.067 1.25 12.2 3.77zM82.37 13.1v40.18H70V46a13.32 13.32 0 0 1-5.15 5.61 14.88 14.88 0 0 1-7.95 2.09c-4.607 0-8.273-1.537-11-4.61-2.727-3.073-4.083-7.293-4.07-12.66V13.1h12.24v21.82a8.93 8.93 0 0 0 2.13 6.37 7.46 7.46 0 0 0 5.72 2.27 7.55 7.55 0 0 0 5.9-2.38C69.26 39.6 70 37.34 70 34.42V13.1h12.37zM126.39 15.08a17.144 17.144 0 0 1 6.2 7.13 24.817 24.817 0 0 1 2.26 11 24.874 24.874 0 0 1-2.26 11 17.053 17.053 0 0 1-6.2 7.16 16.22 16.22 0 0 1-8.89 2.48 14.57 14.57 0 0 1-7.92-2.08 12.16 12.16 0 0 1-4.82-5.77v7.27H92.45V0h12.31v20.38a12.11 12.11 0 0 1 4.82-5.69 14.57 14.57 0 0 1 7.92-2.09c3.14-.047 6.227.814 8.89 2.48zM107.17 26a9.998 9.998 0 0 0-2.48 7.16 10 10 0 0 0 2.48 7.13 9.003 9.003 0 0 0 9.807 2.01 9.002 9.002 0 0 0 2.933-1.94 10.16 10.16 0 0 0 2.42-7.2 10.16 10.16 0 0 0-2.42-7.2 8.273 8.273 0 0 0-6.37-2.59 8.389 8.389 0 0 0-6.37 2.63zM168.51 16.42a16.57 16.57 0 0 1 5.73 10.08h-11.52a6.39 6.39 0 0 0-2.27-3.86 6.93 6.93 0 0 0-4.43-1.4 4.85 4.85 0 0 0-3.17.9c-.364.315-.651.71-.839 1.154a3.15 3.15 0 0 0-.241 1.406 3 3 0 0 0 2 2.8c2.006.84 4.094 1.47 6.23 1.88a62.93 62.93 0 0 1 7.56 2.19 12.519 12.519 0 0 1 5.11 3.64 10 10 0 0 1 2.14 6.79 10.38 10.38 0 0 1-1.87 6.12 12.399 12.399 0 0 1-5.4 4.17 21.001 21.001 0 0 1-8.35 1.51c-5.42 0-9.753-1.2-13-3.6a15.162 15.162 0 0 1-6-10.29h11.88a5.342 5.342 0 0 0 2.2 4 8.26 8.26 0 0 0 4.93 1.37 4.591 4.591 0 0 0 3.17-1 3.253 3.253 0 0 0 1.08-2.55 3.08 3.08 0 0 0-2-3 36.182 36.182 0 0 0-6.45-1.94 51.226 51.226 0 0 1-7.34-2 12.121 12.121 0 0 1-5-3.5 9.71 9.71 0 0 1-2.09-6.58 10.74 10.74 0 0 1 4.15-8.71c2.727-2.227 6.59-3.343 11.59-3.35 5-.007 9.067 1.25 12.2 3.77zM205.41 42.7v10.58h-5.54c-4.7 0-8.37-1.16-11-3.49-2.63-2.33-3.87-6.18-3.87-11.56V23.47h-5.39V13.1H185V3.24h12.32v9.86h8.06v10.37h-8.06v15a4.508 4.508 0 0 0 1 3.31 4.67 4.67 0 0 0 3.28.94l3.81-.02zM232.88 14.83a15.14 15.14 0 0 1 7.88-2.16v13.18h-3.52c-3.27 0-5.8.69-7.6 2.09-1.8 1.4-2.7 3.74-2.7 7.05v18.29h-12.31V13.1h12.31v7.56a17.617 17.617 0 0 1 5.94-5.83zM269.28 14.69a12.552 12.552 0 0 1 4.89 5.69V13.1h12.24v40.18h-12.24V46a12.597 12.597 0 0 1-4.89 5.69 14.57 14.57 0 0 1-7.92 2.08 16.25 16.25 0 0 1-8.9-2.48 16.997 16.997 0 0 1-6.19-7.16 24.865 24.865 0 0 1-2.27-11 24.82 24.82 0 0 1 2.27-11 17.13 17.13 0 0 1 6.19-7.13 16.34 16.34 0 0 1 8.9-2.48 14.57 14.57 0 0 1 7.92 2.17zM258.94 26a10.2 10.2 0 0 0-2.41 7.2 10.2 10.2 0 0 0 2.41 7.2 9.049 9.049 0 0 0 12.75-.07 10.06 10.06 0 0 0 2.48-7.13 10 10 0 0 0-2.48-7.2 8.389 8.389 0 0 0-6.37-2.63 8.31 8.31 0 0 0-6.38 2.63zM318.81 42.7v10.58h-5.54c-4.707 0-8.373-1.163-11-3.49-2.627-2.327-3.937-6.18-3.93-11.56V23.47H293V13.1h5.4V3.24h12.32v9.86h8.06v10.37h-8.06v15a4.508 4.508 0 0 0 1 3.31 4.66 4.66 0 0 0 3.27.94l3.82-.02zM364.24 35.42h-27.86c.14 3.033.907 5.207 2.3 6.52a7.423 7.423 0 0 0 5.33 2 7.32 7.32 0 0 0 4.54-1.37 6.36 6.36 0 0 0 2.37-3.57h13a17.001 17.001 0 0 1-3.45 7.6 18.539 18.539 0 0 1-6.77 5.26 23.168 23.168 0 0 1-19.62-.58 17.692 17.692 0 0 1-7.08-7.14 22.224 22.224 0 0 1-2.6-11 22.494 22.494 0 0 1 2.56-11 17.561 17.561 0 0 1 7.16-7.13 23.658 23.658 0 0 1 21 0 17.33 17.33 0 0 1 7 6.87 20.557 20.557 0 0 1 2.48 10.19 16.99 16.99 0 0 1-.36 3.35zM350 24.3a7.802 7.802 0 0 0-5.43-2 8 8 0 0 0-5.62 2 8.407 8.407 0 0 0-2.52 5.9h15.7c.06-2.6-.64-4.58-2.13-5.9z" fill="#fff"/><path d="M419.75 46.09v12h-44.56v-12h44.56z" fill="#18FFB2"/></g><defs><clipPath id="a"><path fill="#fff" d="M0 0h419.75v58.11H0z"/></clipPath></defs></svg>